<svg id="그룹_1545" data-name="그룹 1545" xmlns="http://www.w3.org/2000/svg" width="16" height="16" viewBox="0 0 16 16">
  <rect id="사각형_191" data-name="사각형 191" width="16" height="16" fill="none"/>
  <path id="Icon_simple-microsoftexcel" data-name="Icon simple-microsoftexcel" d="M15.7,2.251H10.34v.992h1.58V4.812H10.34v.5h1.58V6.883H10.34V7.4h1.58V8.883H10.34v.6h1.58v1.489H10.34v.6h1.58v1.5H10.34v1.093H15.7c.085-.025.155-.125.212-.3A1.462,1.462,0,0,0,16,13.431v-11c0-.085-.029-.137-.086-.155a.733.733,0,0,0-.214-.025ZM15,13.06H12.435v-1.5h2.571v1.5Zm0-2.092H12.435V9.478h2.571Zm0-2.085H12.435V7.4h2.571V8.884Zm0-2H12.435V5.313h2.571v1.57h0ZM15,4.8H12.435V3.243h2.571V4.8ZM0,2V14.4l9.44,1.633V.329L0,2.009Zm5.6,9.381q-.054-.146-.505-1.242c-.3-.731-.48-1.156-.533-1.277H4.541l-1.013,2.41-1.353-.091,1.605-3-1.47-3L3.69,5.11,4.6,7.458h.02L5.65,5l1.426-.09-1.7,3.247,1.75,3.312L5.6,11.383Z" transform="translate(0 -0.328)" fill="#1e7145"/>
</svg>
